# This file uses centimeters as units for non-parametric coordinates.

mtllib Television.mtl
g default
v -0.235522 7.280211 -2.384070
v -0.235522 7.280211 2.384070
v 0.235522 7.280211 -2.384070
v 0.235522 7.280211 2.384070
v 0.235522 7.280211 2.860884
v -0.235522 7.280211 2.860884
v 0.235522 7.280211 -2.860884
v -0.235522 7.280211 -2.860884
v -0.472652 6.828230 3.163833
v 0.472652 6.828230 3.163833
v 0.472652 6.828230 3.796599
v -0.472652 6.828230 3.796599
v 0.472652 6.828230 -3.796599
v -0.472652 6.828230 -3.796599
v 0.472652 6.828230 -3.163833
v -0.472652 6.828230 -3.163833
v 0.235522 7.377240 2.708454
v 0.235522 7.377240 3.761742
v 0.235522 7.377240 2.257045
v 0.235522 7.377240 -2.257045
v 0.235522 7.377240 -2.708454
v 0.235522 7.377240 -3.761742
v 0.235522 10.825339 -3.761742
v 0.235522 10.825339 3.761742
v 0.160350 7.377240 2.708454
v 0.160350 7.377240 3.761742
v 0.160350 7.377240 2.257045
v 0.160350 7.377240 -2.257045
v 0.160350 7.377240 -2.708454
v 0.160350 7.377240 -3.761742
v 0.160350 10.825339 -3.761742
v 0.160350 10.825339 3.761742
v -0.235522 10.922368 3.808793
v -0.235522 10.757711 3.973450
v -0.235522 10.800327 3.967840
v -0.235522 10.840041 3.951390
v -0.235522 10.874141 3.925224
v -0.235522 10.900309 3.891122
v -0.235522 10.916757 3.851409
v 0.235522 10.873859 3.867607
v 0.235522 10.922368 3.808793
v 0.235522 10.916757 3.851409
v 0.235522 10.900309 3.891122
v 0.235522 10.874141 3.925224
v 0.235522 10.840041 3.951390
v 0.235522 10.800327 3.967840
v 0.235522 10.757711 3.973450
v -0.235522 10.757711 -3.973450
v -0.235522 10.922368 -3.808793
v -0.235522 10.916757 -3.851409
v -0.235522 10.900309 -3.891122
v -0.235522 10.874141 -3.925224
v -0.235522 10.840041 -3.951390
v -0.235522 10.800327 -3.967840
v 0.235522 10.873859 -3.867607
v 0.235522 10.757711 -3.973450
v 0.235522 10.800327 -3.967840
v 0.235522 10.840041 -3.951390
v 0.235522 10.874141 -3.925224
v 0.235522 10.900309 -3.891122
v 0.235522 10.916757 -3.851409
v 0.235522 10.922368 -3.808793
v -0.235522 7.280211 3.808793
v -0.235522 7.285822 3.851409
v -0.235522 7.302271 3.891122
v -0.235522 7.328438 3.925224
v -0.235522 7.362540 3.951390
v -0.235522 7.402252 3.967840
v -0.235522 7.444869 3.973450
v 0.235522 7.328721 3.867607
v 0.235522 7.444869 3.973450
v 0.235522 7.402252 3.967840
v 0.235522 7.362540 3.951390
v 0.235522 7.328438 3.925224
v 0.235522 7.302271 3.891122
v 0.235522 7.285822 3.851409
v 0.235522 7.280211 3.808793
v -0.235522 7.444869 -3.973450
v -0.235522 7.402252 -3.967840
v -0.235522 7.362540 -3.951390
v -0.235522 7.328438 -3.925224
v -0.235522 7.302271 -3.891122
v -0.235522 7.285822 -3.851409
v -0.235522 7.280211 -3.808793
v 0.235522 7.444869 -3.973450
v 0.235522 7.328721 -3.867607
v 0.235522 7.280211 -3.808793
v 0.235522 7.285822 -3.851409
v 0.235522 7.302271 -3.891122
v 0.235522 7.328438 -3.925224
v 0.235522 7.362540 -3.951390
v 0.235522 7.402252 -3.967840
vt 0.375000 0.800000
vt 0.375000 0.950000
vt 0.625000 0.800000
vt 0.825000 0.000000
vt 0.625000 0.950000
vt 0.675000 0.000000
vt 0.375000 0.965000
vt 0.625000 0.785000
vt 0.375000 0.950000
vt 0.625000 0.950000
vt 0.625000 0.965000
vt 0.375000 0.965000
vt 0.375000 0.785000
vt 0.625000 0.785000
vt 0.625000 0.800000
vt 0.375000 0.800000
vt 0.660000 0.000000
vt 0.675000 0.000000
vt 0.825000 0.000000
vt 0.840000 0.000000
vt 0.625000 0.000000
vt 0.660000 0.000000
vt 0.675000 0.000000
vt 0.825000 0.000000
vt 0.840000 0.000000
vt 0.875000 0.000000
vt 0.875000 0.250000
vt 0.625000 0.250000
vt 0.869820 0.250000
vt 0.875000 0.250000
vt 0.625000 0.255180
vt 0.375000 0.494820
vt 0.375000 0.255180
vt 0.375000 0.511302
vt 0.625000 0.494820
vt 0.630180 0.250000
vt 0.625000 0.250000
vt 0.875000 0.238698
vt 0.875000 0.250000
vt 0.375191 0.242783
vt 0.375193 0.246625
vt 0.375000 0.250000
vt 0.375000 0.252096
vt 0.375000 0.253783
vt 0.628783 0.250000
vt 0.625000 0.253783
vt 0.627096 0.250000
vt 0.625000 0.252096
vt 0.625000 0.250000
vt 0.624946 0.246564
vt 0.624942 0.242737
vt 0.375000 0.496217
vt 0.375000 0.497904
vt 0.375000 0.500000
vt 0.375000 0.503426
vt 0.375000 0.507256
vt 0.875000 0.242744
vt 0.625000 0.507256
vt 0.875000 0.246574
vt 0.625000 0.503426
vt 0.875000 0.250000
vt 0.625000 0.500000
vt 0.872904 0.250000
vt 0.625000 0.497904
vt 0.871217 0.250000
vt 0.625000 0.496217
vt 0.625000 0.238698
vt 0.625000 0.250000
vt 0.630180 0.000000
vt 0.660000 0.000000
vt 0.625000 0.000000
vt 0.875000 0.011302
vt 0.875000 0.000000
vt 0.840000 0.000000
vt 0.375000 0.238698
vt 0.625000 0.965000
vt 0.375000 0.994820
vt 0.625000 0.755180
vt 0.375000 0.785000
vt 0.625000 0.511302
vt 0.375000 0.738698
vt 0.375000 0.011302
vt 0.625000 0.994820
vt 0.375000 0.755180
vt 0.625000 0.738698
vt 0.625000 0.011302
vt 0.625000 0.000022
vt 0.160000 0.000000
vt 0.175000 0.000000
vt 0.325000 0.000000
vt 0.340000 0.000000
vt 0.369820 0.000000
vt 0.372904 0.250000
vt 0.371217 0.250000
vt 0.369820 0.250000
vt 0.130180 0.250000
vt 0.128783 0.250000
vt 0.127096 0.250000
vt 0.125000 0.250000
vt 0.125000 0.246574
vt 0.125000 0.242744
vt 0.125000 0.238698
vt 0.125000 0.011302
vt 0.130180 -0.000000
vt 0.869820 0.000000
vt 0.875000 0.000000
vt -0.000000 -0.000000
vt 0.375000 0.996217
vt -0.000000 -0.000000
vt 0.375000 0.997904
vt 0.375000 0.000000
vt 0.375000 1.000000
vt 0.375000 0.003426
vt 0.375000 0.007256
vt 0.624942 0.007263
vt 0.624946 0.003437
vt 0.625000 0.000000
vt 0.625000 1.000000
vt 0.627096 -0.000000
vt 0.625000 0.997904
vt 0.628783 -0.000000
vt 0.625000 0.996217
vt -0.000000 -0.000000
vt 0.375000 0.742744
vt -0.000000 -0.000000
vt 0.375000 0.746574
vt 0.125000 0.000000
vt 0.375000 0.750000
vt -0.000000 -0.000000
vt 0.375000 0.752096
vt -0.000000 -0.000000
vt 0.375000 0.753783
vt 0.871217 -0.000000
vt 0.625000 0.753783
vt 0.872904 -0.000000
vt 0.625000 0.752096
vt 0.875000 0.000000
vt 0.625000 0.750000
vt 0.875000 0.003426
vt 0.625000 0.746574
vt 0.875000 0.007256
vt 0.625000 0.742744
vn 0.000000 -0.001672 0.999999
vn 0.000000 -0.001672 0.999999
vn 0.000000 0.001672 0.999999
vn 0.000000 0.001672 0.999999
vn 0.000000 1.000000 0.000732
vn 0.000000 1.000000 0.000732
vn 0.000000 1.000000 -0.000732
vn 0.000000 1.000000 -0.000732
vn 0.000000 0.001672 -0.999999
vn 0.000000 0.001672 -0.999999
vn 0.000000 -0.001672 -0.999999
vn 0.000000 -0.001672 -0.999999
vn 0.000000 -1.000000 0.000000
vn 0.000000 -1.000000 0.000000
vn 0.000000 -1.000000 0.000000
vn 0.000000 -1.000000 0.000000
vn 1.000000 0.000000 0.000000
vn 1.000000 0.000000 0.000000
vn 1.000000 0.000000 0.000000
vn 1.000000 0.000000 0.000000
vn 1.000000 0.000000 0.000000
vn 1.000000 0.000000 0.000000
vn 1.000000 0.000000 0.000000
vn 1.000000 0.000000 0.000000
vn 0.000000 -0.999984 -0.005664
vn 0.000000 -0.999984 -0.005664
vn 0.000000 -1.000000 0.000000
vn 0.000000 -1.000000 0.000000
vn 0.000000 -1.000000 0.000000
vn 0.000000 -1.000000 0.000000
vn 0.000000 -1.000000 0.000000
vn 0.000000 -1.000000 0.000000
vn 0.000000 -1.000000 0.000000
vn 0.000000 -1.000000 0.000000
vn 0.000000 -0.999984 0.005664
vn 0.000000 -0.999984 0.005664
vn 0.000000 -1.000000 0.000000
vn 0.000000 -1.000000 0.000000
vn 0.000000 -1.000000 0.000000
vn 0.000000 -1.000000 0.000000
vn 0.000000 -0.865167 -0.501485
vn 0.000000 -0.865167 -0.501485
vn 0.000000 -0.865167 -0.501485
vn 0.000000 -0.865167 -0.501485
vn 0.885527 0.464589 0.000000
vn 0.885527 0.464589 0.000000
vn 0.885527 0.464589 0.000000
vn 0.885527 0.464589 0.000000
vn 0.000000 0.900455 0.434949
vn 0.000000 0.900455 0.434949
vn 0.000000 0.900455 0.434949
vn 0.000000 0.900455 0.434949
vn -0.999997 0.002585 0.000000
vn -0.999998 0.001996 0.000000
vn -0.885527 0.464589 0.000000
vn -0.885527 0.464589 0.000000
vn 0.000000 0.900455 -0.434949
vn 0.000000 0.900455 -0.434949
vn 0.000000 0.900455 -0.434949
vn 0.000000 0.900455 -0.434949
vn 0.885527 0.464589 0.000000
vn 0.885527 0.464589 0.000000
vn 0.885527 0.464589 0.000000
vn 0.885527 0.464589 0.000000
vn 0.000000 -0.865167 0.501485
vn 0.000000 -0.865167 0.501485
vn 0.000000 -0.865167 0.501485
vn 0.000000 -0.865167 0.501485
vn -0.999998 0.001996 0.000000
vn -0.999997 0.002585 0.000000
vn -0.885527 0.464589 0.000000
vn -0.885527 0.464589 0.000000
vn 1.000000 0.000000 0.000000
vn 1.000000 0.000000 0.000000
vn 1.000000 0.000000 0.000000
vn 1.000000 0.000000 0.000000
vn 1.000000 -0.000000 0.000000
vn 1.000000 -0.000000 0.000000
vn 1.000000 -0.000000 0.000000
vn 1.000000 -0.000000 0.000000
vn 1.000000 0.000000 0.000000
vn 1.000000 0.000000 0.000000
vn 1.000000 0.000000 0.000000
vn 1.000000 0.000000 0.000000
vn 1.000000 0.000000 0.000000
vn 1.000000 0.000000 0.000000
vn 1.000000 0.000000 0.000000
vn 1.000000 0.000000 0.000000
vn 1.000000 0.000000 0.000000
vn 0.000000 1.000000 0.000000
vn 0.000000 1.000000 0.000000
vn 0.000000 1.000000 0.000000
vn 0.000000 1.000000 0.000000
vn 0.000000 1.000000 0.000000
vn 0.000000 1.000000 0.000000
vn 0.000000 1.000000 0.000000
vn 0.000000 1.000000 0.000000
vn 0.000000 1.000000 0.000000
vn 0.000000 1.000000 0.000000
vn 0.000000 1.000000 0.000000
vn 0.000000 1.000000 0.000000
vn 0.000000 0.000000 1.000000
vn 0.000000 0.000000 1.000000
vn 0.000000 0.000000 1.000000
vn 0.000000 0.000000 1.000000
vn 0.000000 -1.000000 0.000000
vn 0.000000 -1.000000 0.000000
vn 0.000000 -1.000000 0.000000
vn 0.000000 -1.000000 0.000000
vn 0.000000 0.000000 -1.000000
vn 0.000000 0.000000 -1.000000
vn 0.000000 0.000000 -1.000000
vn 0.000000 0.000000 -1.000000
vn 1.000000 -0.000000 0.000000
vn 1.000000 0.000000 0.000000
vn 1.000000 0.000000 0.000000
vn 1.000000 0.000000 0.000000
vn 1.000000 0.000000 0.000000
vn 1.000000 0.000000 0.000000
vn 1.000000 -0.000000 0.000000
vn 1.000000 -0.000000 0.000000
vn 1.000000 -0.000000 0.000000
vn 1.000000 -0.000000 0.000000
vn 1.000000 -0.000000 0.000000
vn 0.000000 0.965929 0.258808
vn 0.000000 0.965929 0.258808
vn 0.000000 0.866028 0.499995
vn 0.000000 0.866028 0.499995
vn 0.000000 0.707109 0.707104
vn 0.000000 0.707109 0.707104
vn 0.000000 0.499994 0.866029
vn 0.000000 0.499994 0.866029
vn 0.000000 0.258815 0.965927
vn 0.000000 0.258815 0.965927
vn 0.000000 0.258815 -0.965927
vn 0.000000 0.258815 -0.965927
vn 0.000000 0.499994 -0.866029
vn 0.000000 0.499994 -0.866029
vn 0.000000 0.707109 -0.707104
vn 0.000000 0.707109 -0.707104
vn 0.000000 0.866028 -0.499995
vn 0.000000 0.866028 -0.499995
vn 0.000000 0.965929 -0.258808
vn 0.000000 0.965929 -0.258808
vn 1.000000 0.000000 0.000000
vn 1.000000 0.000000 0.000000
vn 1.000000 0.000000 0.000000
vn 1.000000 0.000000 0.000000
vn 1.000000 0.000000 0.000000
vn 1.000000 0.000000 0.000000
vn 1.000000 0.000000 0.000000
vn 1.000000 0.000000 0.000000
vn 1.000000 0.000000 0.000000
vn 1.000000 0.000000 0.000000
vn 1.000000 0.000000 0.000000
vn 1.000000 0.000000 0.000000
vn 1.000000 0.000000 0.000000
vn 1.000000 0.000000 0.000000
vn 1.000000 0.000000 0.000000
vn 1.000000 0.000000 0.000000
vn 1.000000 0.000000 0.000000
vn 1.000000 0.000000 0.000000
vn 0.000000 -0.258820 0.965925
vn 0.000000 -0.258820 0.965925
vn 0.000000 -0.499999 0.866026
vn 0.000000 -0.499999 0.866026
vn 0.000000 -0.707105 0.707109
vn 0.000000 -0.707105 0.707109
vn 0.000000 -0.866027 0.499997
vn 0.000000 -0.866027 0.499997
vn 0.000000 -0.965926 0.258818
vn 0.000000 -0.965926 0.258818
vn 0.000000 -0.965926 -0.258818
vn 0.000000 -0.965926 -0.258818
vn 0.000000 -0.866027 -0.499997
vn 0.000000 -0.866027 -0.499997
vn 0.000000 -0.707105 -0.707109
vn 0.000000 -0.707105 -0.707109
vn 0.000000 -0.499999 -0.866026
vn 0.000000 -0.499999 -0.866026
vn 0.000000 -0.258820 -0.965925
vn 0.000000 -0.258820 -0.965925
vn 1.000000 0.000000 0.000000
vn 1.000000 0.000000 0.000000
vn 1.000000 0.000000 0.000000
vn 1.000000 0.000000 0.000000
vn 1.000000 0.000000 0.000000
vn -1.000000 -0.000000 0.000000
vn -1.000000 -0.000000 0.000000
vn -1.000000 -0.000000 0.000000
vn -1.000000 -0.000000 0.000000
vn -1.000000 -0.000000 0.000000
vn -1.000000 -0.000000 0.000000
vn -1.000000 -0.000000 0.000000
vn -1.000000 -0.000000 0.000000
vn -1.000000 -0.000000 0.000000
vn -1.000000 -0.000000 0.000000
vn -1.000000 -0.000000 0.000000
vn -1.000000 -0.000000 0.000000
vn -1.000000 -0.000000 0.000000
vn -1.000000 -0.000000 0.000000
vn -1.000000 -0.000000 0.000000
vn -1.000000 -0.000000 0.000000
vn -1.000000 -0.000000 0.000000
vn -1.000000 -0.000000 0.000000
vn -1.000000 -0.000000 0.000000
vn -1.000000 -0.000000 0.000000
vn -1.000000 -0.000000 0.000000
vn -1.000000 -0.000000 0.000000
vn -1.000000 -0.000000 0.000000
vn -1.000000 -0.000000 0.000000
vn -1.000000 -0.000000 0.000000
vn -1.000000 -0.000000 0.000000
vn -1.000000 -0.000000 0.000000
vn -1.000000 -0.000000 0.000000
vn 1.000000 0.000000 0.000000
vn 1.000000 0.000000 0.000000
vn 1.000000 0.000000 0.000000
vn 1.000000 0.000000 0.000000
vn 1.000000 0.000000 0.000000
s 1
g pCube1
usemtl initialShadingGroup
f 69/82/1 71/86/2 47/67/3 34/75/4
f 33/33/5 41/31/6 62/35/7 49/32/8
f 48/34/9 56/80/10 85/85/11 78/81/12
s off
f 9/9/13 10/10/14 11/11/15 12/12/16
f 26/21/17 25/22/18 27/23/19 28/24/20 29/25/21 30/26/22 31/27/23 32/28/24
s 1
f 84/84/25 87/78/26 7/8/27 8/79/28
s off
f 1/1/29 3/3/30 4/5/31 2/2/32
s 1
f 6/7/33 5/76/34 77/83/35 63/77/36
s off
f 14/13/37 13/14/38 15/15/39 16/16/40
f 2/2/41 4/5/42 10/10/43 9/9/44
f 4/5/45 5/76/46 11/11/47 10/10/48
f 5/76/49 6/7/50 12/12/51 11/11/52
s 6
f 6/7/53 2/2/54 9/9/55 12/12/56
s off
f 8/79/57 7/8/58 13/14/59 14/13/60
f 7/8/61 3/3/62 15/15/63 13/14/64
f 3/3/65 1/1/66 16/16/67 15/15/68
s 6
f 1/1/69 8/79/70 14/13/71 16/16/72
s off
f 5/70/73 4/6/74 19/18/75 17/17/76
f 4/6/77 3/4/78 20/19/79 19/18/80
f 3/4/81 7/74/82 21/20/83 20/19/84
s 7
f 7/74/85 87/105/86 86/106/87 22/73/88 21/20/89
s 8
f 18/71/90 17/17/91 25/22/92 26/21/93
f 17/17/91 19/18/94 27/23/95 25/22/92
f 19/18/94 20/19/96 28/24/97 27/23/95
f 20/19/96 21/20/98 29/25/99 28/24/97
f 21/20/98 22/73/100 30/26/101 29/25/99
s off
f 22/73/102 23/30/103 31/27/104 30/26/105
f 23/30/106 24/68/107 32/28/108 31/27/109
f 24/68/110 18/71/111 26/21/112 32/28/113
s 7
f 40/37/114 47/67/115 71/86/116 70/87/117 18/71/118 24/68/119
f 55/39/120 62/29/121 41/36/122 40/37/114 24/68/123 23/30/124
s 1
f 33/33/5 39/44/125 42/46/126 41/31/6
f 39/44/125 38/43/127 43/48/128 42/46/126
f 38/43/127 37/42/129 44/49/130 43/48/128
f 37/42/129 36/41/131 45/50/132 44/49/130
f 36/41/131 35/40/133 46/51/134 45/50/132
f 35/40/133 34/75/4 47/67/3 46/51/134
f 48/34/9 54/56/135 57/58/136 56/80/10
f 54/56/135 53/55/137 58/60/138 57/58/136
f 53/55/137 52/54/139 59/62/140 58/60/138
f 52/54/139 51/53/141 60/64/142 59/62/140
f 51/53/141 50/52/143 61/66/144 60/64/142
f 50/52/143 49/32/8 62/35/7 61/66/144
s 7
f 40/37/114 41/36/122 42/45/145
f 40/37/114 42/45/145 43/47/146
f 40/37/114 43/47/146 44/49/147
f 40/37/114 44/49/147 45/50/148
f 40/37/114 45/50/148 46/51/149
f 40/37/114 46/51/149 47/67/115
f 55/39/120 56/38/150 57/57/151
f 55/39/120 57/57/151 58/59/152
f 55/39/120 58/59/152 59/61/153
f 55/39/120 59/61/153 60/63/154
f 55/39/120 60/63/154 61/65/155
f 55/39/120 61/65/155 62/29/121
f 70/87/117 77/69/156 5/70/157 17/17/158 18/71/159
f 86/106/87 85/72/160 56/38/150 55/39/120 23/30/161 22/73/162
s 1
f 69/82/1 68/114/163 72/115/164 71/86/2
f 68/114/163 67/113/165 73/116/166 72/115/164
f 67/113/165 66/111/167 74/117/168 73/116/166
f 66/112/167 65/110/169 75/120/170 74/118/168
f 65/110/169 64/108/171 76/122/172 75/120/170
f 64/108/171 63/77/36 77/83/35 76/122/172
f 84/84/25 83/132/173 88/134/174 87/78/26
f 83/132/173 82/130/175 89/136/176 88/134/174
f 82/130/175 81/128/177 90/138/178 89/136/176
f 81/128/177 80/126/179 91/140/180 90/138/178
f 80/126/179 79/124/181 92/142/182 91/140/180
f 79/124/181 78/81/12 85/85/11 92/142/182
s 7
f 70/87/117 71/86/116 72/115/183
f 70/87/117 72/115/183 73/116/184
f 70/87/117 73/116/184 74/117/185
f 70/87/117 74/117/185 75/119/186
f 70/87/117 75/119/186 76/121/187
f 70/87/117 76/121/187 77/69/156
s 6
f 8/88/70 1/89/69 2/90/54 6/91/53 63/92/188 64/107/189 65/109/190 66/111/191 67/113/192 68/114/193 69/82/194 34/75/195 35/40/196 36/41/197 37/42/198 38/93/199 39/94/200 33/95/201 49/96/202 50/97/203 51/98/204 52/99/205 53/100/206 54/101/207 48/102/208 78/103/209 79/123/210 80/125/211 81/127/212 82/129/213 83/131/214 84/104/215
s 7
f 86/106/87 87/105/86 88/133/216
f 86/106/87 88/133/216 89/135/217
f 86/106/87 89/135/217 90/137/218
f 86/106/87 90/137/218 91/139/219
f 86/106/87 91/139/219 92/141/220
f 86/106/87 92/141/220 85/72/160
